<svg xmlns="http://www.w3.org/2000/svg" xmlns:xlink="http://www.w3.org/1999/xlink" id="Layer_2" data-name="Layer 2" viewBox="0 0 268.31 64.74"><defs><style>      .logo-wcec-1 {        fill: #c32031;      }      .logo-wcec-2 {        fill: url(#radial-gradient-2);      }      .logo-wcec-3 {        fill: url(#radial-gradient);      }    </style><radialGradient id="radial-gradient" cx="37.16" cy="29.71" fx="37.16" fy="29.71" r="28.3" gradientUnits="userSpaceOnUse"><stop offset="0" stop-color="#cc292c"></stop><stop offset=".48" stop-color="#ca282c"></stop><stop offset=".65" stop-color="#c3282c"></stop><stop offset=".77" stop-color="#b7282c"></stop><stop offset=".87" stop-color="#a6272d"></stop><stop offset=".96" stop-color="#90272d"></stop><stop offset="1" stop-color="#82272e"></stop></radialGradient><radialGradient id="radial-gradient-2" cx="29.17" cy="32.37" fx="29.17" fy="32.37" r="30.81" xlink:href="#radial-gradient"></radialGradient></defs><g id="Layer_1-2" data-name="Layer 1"><g><g><path class="logo-wcec-3" d="m65.36,30.71c-2.74,0-5.44,0-8.14,0-4.38,0-8.75,0-13.13,0-.41,0-.55.11-.64.52-.67,3.03-3.42,5.03-6.7,4.9-2.88-.11-5.43-2.45-5.88-5.39-.61-4,2.41-7.55,6.42-7.46,2.58.06,4.5,1.3,5.71,3.6.07.13.12.26.19.38.01.03.05.04.1.09,1.21-.6,2.43-1.2,3.66-1.81-1.17-3.01-4.84-6.7-10.43-6.39-4.7.26-8.96,4.14-9.71,8.92-.77,4.89,1.95,9.59,6.62,11.45,4.64,1.85,10.71.44,13.63-5.64,5.63,1.73,11.26,3.46,16.9,5.2-3.75,11.2-15.87,20.85-30.79,18.64-15.19-2.25-25.86-16.07-24.05-31.28C10.9,11.23,24.48-.1,40.05,1.55c16.49,1.75,26.33,16.35,25.31,29.16Z"></path><path class="logo-wcec-2" d="m58.34,52.62c-2.41,2.96-5.25,5.45-8.53,7.41-5.42,3.25-11.3,4.82-17.61,4.7-6.84-.13-13.09-2.15-18.63-6.18C6.33,53.29,1.87,46.22.43,37.36-2.34,20.41,8.61,4.27,25.38.47c.83-.19,1.66-.34,2.5-.47-6.97,2.2-12.62,6.22-16.82,12.21-3.37,4.81-5.22,10.17-5.52,16.03-.7,13.49,7.18,24.73,17.87,29.78,11.25,5.31,25.24,3.61,34.93-5.4Z"></path></g><g><path class="logo-wcec-1" d="m97.84,8.16c.55,0,1.04-.03,1.53,0,2.29.18,4.57.38,6.85.58.47.04.59.3.37.69-.31.55-.6,1.12-.98,1.62-.9,1.18-1.88,1.41-3.31.96-1.32-.41-2.66-.74-4-1.09-.22-.06-.46-.05-.85-.1,0,1.33,0,2.59,0,3.85,0,.42.08.83.07,1.24-.02.76-.76,1.35-1.5,1.19-.4-.09-.78-.27-1.18-.37-.78-.19-1.57-.41-2.36-.48-.41-.04-.85.21-1.28.34-.39.11-.78.3-1.18.32-.64.04-1.11-.43-1.17-1.08-.16-1.7-.3-3.39-.47-5.09-.02-.17-.18-.46-.28-.46-1-.03-2.01-.02-3.05-.02,0,.97-.04,1.88,0,2.78.1,1.76.27,3.51.38,5.27.03.58.34.82.84.87,1,.1,2.01.23,3.01.24,3.74.03,7.49.01,11.23.01.78,0,1.14.21,1.26.73.13.57-.25,1.31-.8,1.58-.93.46-1.93.37-2.92.36-3.96-.07-7.92-.16-11.88-.21-.92-.01-1.84.1-2.76.2-.93.1-1.54-.53-1.22-1.4.69-1.89.45-3.84.44-5.77,0-1.44-.17-2.88-.27-4.38-1.7.12-3.29.32-4.82.93-.3.12-.82.21-.96.06-.2-.21-.24-.68-.19-1.02.11-.8.5-1.49,1.06-2.08.56-.59,1.14-.71,1.88-.4.86.36,1.76.4,2.74.34,0-1.16,0-2.28,0-3.4,0-.52.04-1.02.61-1.22.57-.2,1.04,0,1.42.46.64.75.85,1.64.9,2.58.02.41,0,.83,0,1.3h3.31c0-.21.03-.42.03-.63,0-1.54-.02-3.09-.03-4.63,0-.55.24-.79.79-.8,1.21-.01,1.97.78,1.9,2-.08,1.32-.16,2.65-.25,4,.05.03.12.11.18.11,1.24.02,2.49.03,3.73.05.33,0,.47-.16.43-.48-.14-1.29-.26-2.59-.44-3.87-.08-.59.68-2.05,1.25-2.21.52-.15,1.31.29,1.57,1.01.19.55.27,1.15.29,1.74.05,1.03.01,2.06.01,3.09,0,.21.02.43.03.68Zm-6.93,3.59c.09.64.21,1.29.26,1.93.04.48.3.69.72.81.88.26,1.72.12,2.54-.23.12-.05.25-.22.27-.35.16-.99.3-1.98.4-2.98.01-.13-.25-.4-.39-.41-.86-.06-1.74-.13-2.6-.08-1.17.06-1.17.11-1.2,1.29Z"></path><path class="logo-wcec-1" d="m183.55,8.2c-2.1-1.43-2.15-1.57-1-2.89-.37.03-.64.05-.91.06-2.77.17-5.52.44-8.21,1.15-.6.16-1.12-.58-.81-1.25.28-.6.69-1.15,1.13-1.65.33-.38.81-.48,1.36-.36,2.78.58,5.59.44,8.4.31.12,0,.24-.04.35-.03.76.04,1.29-.06,1.51-1.01.21-.92,1.47-1.42,2.57-1.26,1.06.15,1.65.74,1.82,1.81.02.11.04.23.06.35,4.17.17,8.31.34,12.64.52-.18.67-.28,1.2-.47,1.7-.13.34-.37.65-.6.95-.75.96-1.42,1.19-2.54.71-2-.86-4.1-1.3-6.24-1.61-.31-.04-.62-.06-1.03-.1.99,1.3-.03,1.97-.8,2.84.7.05,1.3.13,1.89.12.71-.01,1.42-.11,2.12-.17.16-.01.31-.07.46-.1,1.82-.26,2.38.25,2.24,2.07-.29,3.71-.13,7.4.31,11.08.15,1.22-.39,1.94-1.6,2.12-.68.1-1.51-.67-1.53-1.49-.06-1.92-.1-3.84-.12-5.76,0-1.45.06-2.89.06-4.34,0-1.36-.55-1.92-1.92-2.03-3.44-.27-6.88-.3-10.31.08-1.22.13-1.83.77-1.89,2-.07,1.5-.1,3.01-.24,4.5-.13,1.36-.52,2.67-1.18,3.89-1.14,2.11-3.54,2.56-5.49,2.22-.28-.05-.58-.27-.77-.49-.44-.53-.33-1.09.28-1.41.58-.3,1.17-.57,1.78-.81,2.19-.86,3.39-2.45,3.37-4.8-.01-1.57-.25-3.15-.39-4.72-.03-.33-.08-.67-.05-1,.05-.59.45-.97,1.13-1,.83-.03,1.66.04,2.49.01.68-.02,1.35-.12,2.16-.2Zm1.04-.04c1.48,0,2.96,0,4.44-.01.13,0,.35-.19.38-.33.17-.69.28-1.39.42-2.08.06-.3-.04-.45-.36-.46-.61-.02-1.22-.1-1.83-.09-1.35.02-2.7.07-4.11.12.26.52.5.92.66,1.36.17.46.26.95.4,1.51Z"></path><path class="logo-wcec-1" d="m234.84,18.91c-.75,1.31-1.48,2.54-2.62,3.44-1.27,1.01-2.42.94-3.61-.13-2.85-2.56-5.08-5.64-7.46-8.61-.49-.62-.97-1.24-1.51-1.93-.08.2-.14.33-.18.47-1.09,3.63-3.16,6.53-6.43,8.51-1.69,1.03-3.53,1.63-5.49,1.02-1.21-.37-2.02-1.36-2.59-2.47-.25-.49.16-.59.57-.59,1.9,0,3.74-.3,5.53-.95,3.36-1.23,5.47-3.52,6.07-7.11.13-.76-.08-1.08-.87-1.09-.83-.01-1.66.06-2.48.16-1.47.19-2.93.42-4.4.64-.9.13-1.15-.17-.84-1.02.49-1.37,1.64-1.99,3.04-1.85,1.69.17,3.39.21,5.09.24.78.02.96-.17.98-.95.02-.83-.12-1.65-.17-2.48-.02-.35-.03-.72.02-1.06.14-.87.63-1.31,1.41-1.32,1.07-.02,1.81.43,1.88,1.33.08,1.08-.01,2.17-.05,3.26-.01.37-.07.74-.13,1.27,1.27,0,2.5-.04,3.71.01,1.76.08,3.52.22,5.27.37.24.02.62.26.64.43.03.25-.14.68-.34.78-.47.22-1.01.41-1.52.4-1.92-.02-3.84-.13-5.75-.19-.65-.02-1.3,0-2.1,0,.23.38.38.7.59.96,1.83,2.2,4.04,3.95,6.44,5.48,2.24,1.43,4.61,2.51,7.31,3Z"></path><path class="logo-wcec-1" d="m125.92,10.32c4.05,2.3,8.22,3.84,12.7,4.67-.37,1.23-.95,2.25-1.81,3.08-.47.45-1.09.48-1.67.25-.43-.18-.84-.43-1.24-.69-2.52-1.67-5.03-3.36-7.56-5.02-.82-.54-1.7-1-2.55-1.51-.44-.27-.75-.2-1.13.16-2.49,2.31-5.27,4.18-8.52,5.25-.88.29-1.79.51-2.7.68-1.73.31-2.74-.37-3.29-2.23.73-.14,1.45-.34,2.17-.4,3.17-.25,6.03-1.37,8.74-2.97.58-.34,1.12-.74,1.68-1.11.02-.02.02-.07.07-.26-1.17.25-2.3.39-3.37.73-1.2.39-1.75.15-1.97-1.1-.32-1.79-.69-3.57-.99-5.37-.09-.53-.07-1.11.04-1.64.23-1.06,1.22-1.52,2.24-1.14,1.99.75,4.06,1.06,6.18.89,2.08-.17,4.18-.34,6.24-.66,1.74-.27,2.66.38,2.5,2.13-.16,1.81-.4,3.62-.66,5.42-.18,1.26-1.14,1.74-2.33,1.23-.85-.36-1.72-.5-2.77-.4Zm-6.41-6.83c-.42.03-.91.06-1.41.12-.7.07-1.1.57-1.1,1.29,0,.35.15.54.5.61,1.4.27,2.8.22,4.19-.08.49-.11.63-.53.59-.97-.03-.44-.21-.81-.74-.83-.65-.04-1.3-.08-2.03-.13Zm6.9,0c-.4.03-.85.1-1.3.11-.59,0-.73.39-.74.86-.01.47.03.99.63,1.02,1.07.06,2.15.07,3.22.04.52-.02.84-.4.78-.92-.05-.49-.34-.89-.89-.96-.55-.07-1.1-.09-1.71-.14Zm-6.56,5.66c.59-.05,1.16-.1,1.73-.13.45-.03.59-.37.56-.69-.04-.38-.17-1.01-.38-1.06-1.29-.32-2.63-.44-3.88.16-.23.11-.36.62-.35.94.01.22.33.55.57.61.57.13,1.17.12,1.74.17Zm6.55-.16v.07c.59-.08,1.19-.1,1.75-.25.52-.14.69-.59.65-1.12-.04-.51-.41-.62-.78-.62-1.04.01-2.07.06-3.11.14-.14.01-.34.21-.39.36-.26.72.23,1.41,1,1.42.3,0,.59,0,.89,0Z"></path><path class="logo-wcec-1" d="m170.68,13.97c-.52,1.37-1.01,2.65-1.98,3.65-.68.7-1.21.69-2.15.43-1.96-.55-3.94-1.02-5.93-1.46-1.04-.23-2.11-.32-3.17-.46-.23-.03-.46-.03-.77-.04v1.34c0,1.58,0,3.17,0,4.75,0,.04,0,.08,0,.12,0,.85-.99,1.55-2.12,1.49-.93-.05-1.33-.54-1.28-1.54.08-1.78.16-3.56.23-5.34.01-.25,0-.51,0-.77-1.48,0-2.9-.05-4.31.01-2.53.12-5.05.33-7.52,1-.56.15-.81-.06-.75-.64.15-1.49.87-2.93,3.14-2.84,3.12.12,6.25.03,9.45.03,0-.77.03-1.48,0-2.19-.02-.47.19-.69.6-.81,1.44-.42,2.57.42,2.58,1.9,0,1.03,0,1.05,1.05,1.17,3.96.45,7.92.75,11.9.32.31-.03.62-.08,1.05-.13Z"></path><path class="logo-wcec-1" d="m250.22,15.25c.17.26.29.41.37.58.18.4.16.7-.25,1.02-.7.54-1.36,1.15-1.97,1.79-.48.51-.37,1,.17,1.35,1.62,1.06,4.31.68,5.66-.85-.44-.33-.87-.65-1.3-.98-.51-.4-.4-1.78.18-2.07.14-.07.37-.08.51-.02.44.21.94.38,1.28.71,1.48,1.43,2.91,2.91,4.34,4.4.16.17.12.52.18.79-.25.01-.55.12-.75.02-1-.51-1.97-1.07-3.01-1.65-.32.32-.71.73-1.13,1.11-.87.79-1.85,1.36-3.04,1.47-.29.03-.61.04-.87-.05-.98-.35-1.99-.68-2.91-1.16-.68-.35-1.33-.45-2.04-.28-.42.1-.84.22-1.26.35-.68.2-1.06-.04-1.16-.74-.03-.2-.07-.39-.07-.59,0-.77.27-1.09,1.01-1.32,1.53-.48,2.76-1.36,3.61-2.73.11-.18.21-.38.29-.58.14-.37.02-.57-.39-.57-1.67,0-3.32.14-4.91.69-.77.26-1.08.05-1.1-.75-.03-.96,1.42-2.36,2.32-2.09,1.56.46,3.11.24,4.66.14,3.59-.24,7.16-.07,10.71.52.62.1,1.22.37,1.85.57-.21.77-.65.93-1.24.93-2.97,0-5.94,0-8.91,0-.24,0-.47,0-.81,0Z"></path><path class="logo-wcec-1" d="m251.93,4.03c4.77,2.4,9.46,4.94,14.69,6.36-.59.97-1.24,1.88-2.21,2.51-1.06.69-2.03.59-3.07-.15-3.4-2.41-6.83-4.79-10.25-7.18-.13-.09-.27-.16-.38-.22-1.71,1.24-3.36,2.49-5.08,3.66-1.86,1.27-3.7,2.58-5.88,3.29-1.24.4-2.41.06-3.16-.94-.36-.48-.31-.75.23-1.03.3-.15.62-.28.94-.36,4.87-1.22,8.81-3.91,12.15-7.58.15-.16.27-.35.45-.47.17-.11.39-.22.58-.2.81.09,1.44,1.38,1.06,2.1-.02.05-.04.1-.08.2Z"></path><path class="logo-wcec-1" d="m158.36,6c1.05-.66,2.08-1.33,3.14-1.96.55-.33,1.13-.66,1.74-.8.35-.08.86.14,1.16.39.62.51.49,1.21-.24,1.56-1.7.8-3.41,1.58-5.11,2.36-.19.09-.38.18-.78.36.59.4,1.02.78,1.52.99,1.96.86,4,.85,6.05.37.29-.07.58-.14.86-.21.64-.16,1.25.39,1,1-.17.41-.49.91-.86,1.05-3.26,1.24-6.44,1.14-9.4-.84-.54-.36-.87-1.02-1.36-1.61-1.27.09-2.74,1.15-4.08-.09-.02-.09-.03-.18-.05-.27.63-.25,1.26-.51,1.9-.75.64-.24,1.4-.34,1.92-.74.59-.46.16-1.29.28-1.94.11-.64.12-1.3.19-1.95.1-.87.96-1.52,1.82-1.39.59.09.94.74.78,1.36-.25.97-.47,1.94-.71,2.92.08.06.16.12.23.19Z"></path><path class="logo-wcec-1" d="m148.76,6.3c-1.12.45-2.17.89-3.24,1.28-.44.16-.94.3-1.39.25-.54-.06-1.19-.2-1.56-.55-.53-.5-.87-1.21-1.25-1.86-.2-.35-.02-.63.35-.72.79-.17,1.58-.33,2.38-.46,2.88-.47,5.69-1.17,8.27-2.61.48-.27.88-.02.82.54-.04.32-.2.64-.38.91-.2.29-.44.59-.74.76-.81.46-.91,1.14-.89,1.99.06,1.8,0,3.61.03,5.41,0,.54-.22.86-.67,1.07-.51.23-1.05.3-1.53,0-.14-.09-.2-.41-.2-.63-.02-1.58,0-3.17,0-4.75,0-.21,0-.43,0-.62Z"></path><path class="logo-wcec-1" d="m183.74,14.58c1.97.4,4.06.14,6.13.2.47.02.95-.06,1.42,0,.77.09,1.03.44.97,1.2-.08,1.24-.17,2.48-.26,3.72-.07.91-.68,1.42-1.62,1.11-1.62-.53-3.25-.25-4.88-.31-.46-.02-.92.19-1.39.27-1.05.18-1.66-.31-1.55-1.35.11-1.06.05-2.07-.23-3.1-.29-1.04.31-1.75,1.41-1.75Zm3.72,4.38s0-.01,0-.02c.55,0,1.11.04,1.66-.02.24-.03.57-.22.66-.43.46-1,.03-1.93-1.03-2.12-1-.18-2.03-.23-3.06-.28-.57-.02-.92.52-.95,1.28-.03.98.26,1.51.88,1.58.06,0,.12,0,.18,0,.55,0,1.1,0,1.66,0Z"></path><path class="logo-wcec-1" d="m115.57,22.79c-.56-.17-1.45-.41-2.31-.73-.18-.07-.27-.4-.4-.62.21-.11.41-.3.62-.31,1.25-.09,2.48-.22,3.53-1.02,1.16-.88,1.59-2.13,1.79-3.49.08-.51.05-1.03.14-1.53.05-.26.18-.59.38-.73.47-.33.98-.21,1.45.07.46.27.92.62.8,1.2-.27,1.37-.5,2.77-.98,4.07-.77,2.11-2.53,2.91-5.02,3.1Z"></path><path class="logo-wcec-1" d="m125.71,18.85c0-1.22,0-2.45,0-3.67,0-.95.36-1.29,1.3-1.19,1.21.13,1.63.75,1.59,1.96-.06,1.95-.08,3.91.01,5.86.09,1.8-.9,2.07-2.25,1.99-.54-.03-.67-.55-.65-1.04.03-.65.08-1.3.09-1.95.02-.65,0-1.3,0-1.96-.03,0-.07,0-.1,0Z"></path><path d="m107.02,49.58c-.43.55-.86,1.09-1.37,1.75.45-.03.78-.05,1.13-.07v.65c-.77.1-1.52.19-2.3.29-.05-.27-.1-.51-.15-.76.11.1.21.19.32.29.28-.38.57-.76.85-1.14-.05-.08-.11-.15-.16-.23-.3.03-.6.06-.92.09-.26-.4-.21-.7.09-1.13.38-.53.58-1.2.88-1.86.3.11.6.23.96.36-.38.62-.73,1.18-1.08,1.75q.47.11,1.19-.71c.09.05.2.1.3.15.1.06.2.11.38.22v-1.4h3.11v5.28c.21.04.38.07.59.1v.65h-4.3c-.04-.15-.08-.31-.14-.52-.66.14-1.31.29-2.03.44-.07-.26-.14-.51-.21-.8.87-.15,1.7-.29,2.55-.43.02.04.04.09.06.14.07.15.14.31.21.46.06-.16.18-.32.18-.48.02-1.01,0-2.02,0-3.03l-.15-.07Zm1.01,3.58h1.23v-1.09h-1.23v1.09Zm1.22-1.89v-.97h-1.21v.97h1.21Zm-1.22-1.73h1.23v-.92h-1.23v.92Z"></path><path d="m87.93,36.1c.32-1.22.63-2.44.95-3.65.21-.78.25-.8,1.13-.62-.59,2.25-1.17,4.51-1.77,6.76-.03.13-.17.23-.25.35-.11-.12-.26-.23-.31-.37-.49-1.35-.97-2.71-1.45-4.07-.03-.09-.07-.18-.16-.41-.62,1.7-1.2,3.27-1.78,4.84-.09.07-.18.14-.28.22-.05-.17-.11-.33-.15-.5-.58-2.27-1.16-4.54-1.74-6.81.91-.18.93-.17,1.14.63.31,1.22.62,2.44.98,3.83.5-1.38.94-2.59,1.39-3.8.1-.26.27-.49.41-.73.16.25.37.48.47.75.45,1.2.88,2.41,1.31,3.61.04,0,.08-.02.11-.02Z"></path><path d="m84.27,53.56c-.04.74-.52.52-.99.49v-2.9c-.29.12-.51.2-.75.3-.18-.22-.37-.45-.58-.71,1-.52,2.16-.85,2.44-2.26h-1.67v-.72h5.29c-.04.78-.05,1.53-.13,2.27-.02.17-.26.4-.44.44-.42.09-.85.09-1.3.13-.09-.32-.17-.58-.24-.81.37-.1.82-.09,1.04-.31.16-.16.03-.62.03-1.02-.42,0-.82-.02-1.2.01-.12,0-.31.14-.33.24-.18.88-.69,1.53-1.57,2.11h3.9v3.21h-.87c-.02-.39-.25-.5-.65-.48-.65.04-1.3.01-1.98.01Zm-.03-.75h2.58v-1.15h-2.58v1.15Z"></path><path class="logo-wcec-1" d="m250.47,11.1c-1.39,0-2.77-.02-4.16,0-.5,0-.62-.2-.57-.64.12-1.06.7-1.55,1.77-1.49.43.02.87.03,1.31,0,1.89-.11,3.75.21,5.6.51.37.06.73.29,1.07.49.27.16.17.74-.19.94-.23.12-.52.17-.79.18-1.35.02-2.69,0-4.04,0Z"></path><path d="m105.64,34.06v-2.46h.89v7.33c-.38-.06-.86.28-.95-.47-.67.5-1.41.84-2.2.51-.52-.22-1.05-.58-1.4-1.01-.87-1.09-.69-2.83.28-3.81.89-.89,2.12-.96,3.39-.08Zm.06,2.18c-.01-1.03-.76-1.89-1.66-1.89-.92,0-1.7.9-1.68,1.94.02,1.03.79,1.87,1.7,1.85.94-.02,1.65-.85,1.64-1.9Z"></path><path d="m171.8,38.44v2.29h-.89v-7.13c.82-.13.83-.12.97.39,1.32-.83,2.51-.74,3.4.25.96,1.07.99,2.8.06,3.93-.84,1.03-2.04,1.14-3.54.28Zm3.29-2.22c0-1.02-.78-1.89-1.67-1.89-.93,0-1.66.86-1.65,1.95,0,1.07.72,1.85,1.67,1.84.89,0,1.66-.89,1.65-1.9Z"></path><path d="m160.16,58.38v.46h-2.24c.72.7,1.51.98,2.45,1.09-.13.24-.23.44-.36.67-.26-.08-.5-.15-.81-.24v2.89l-.16.12-.53-.39s.05-.09.08-.14h-3.04c-.07.26.02.75-.57.46v-2.93c-.28.11-.51.2-.78.3-.14-.14-.27-.28-.39-.4.78-.42,1.54-.82,2.29-1.23-.02-.06-.05-.12-.07-.18h-2.02c-.02-.14-.03-.28-.05-.46h2.77v-.61c-.71-.35-1.62.37-2.29-.42,1.39-.13,2.69-.19,3.97-.39.54-.09.85-.02,1.08.48-.7.05-1.39.1-2.12.15v.77h2.81Zm-1.61,2.98s.09-.1.13-.15c-.12-.16-.23-.44-.35-.45-.85-.04-1.7-.03-2.55,0-.1,0-.25.2-.28.33-.02.07.17.26.27.26.93.02,1.85.01,2.78.01Zm.08,1.03c-.02-.24-.04-.41-.05-.58h-3.07v.58h3.12Zm-3.53-2.09h1.62v-1.35c-.53.44-1.02.85-1.62,1.35Zm3.86.01c-.61-.51-1.12-.93-1.62-1.34v1.34h1.62Z"></path><path d="m217.21,33.8c-1.37-1.46-2.83-1.64-3.99-.51-1.07,1.04-1.09,3-.03,4.09,1.09,1.12,2.64.98,4.01-.41.22.18.45.36.68.54-.81,1.33-2.35,1.89-3.93,1.45-1.51-.41-2.49-1.81-2.53-3.62-.04-1.64.99-3.17,2.45-3.63,1.53-.48,3.07.07,4.02,1.48-.22.19-.46.39-.69.59Z"></path><path d="m116.03,36.97c.22.19.44.38.65.56-.76,1.28-2.33,1.86-3.85,1.47-1.54-.4-2.56-1.8-2.6-3.56-.04-1.76.97-3.27,2.48-3.72,1.53-.46,3.08.11,3.98,1.5-.22.19-.45.39-.68.58-1.44-1.46-2.78-1.64-3.95-.54-1.11,1.04-1.16,2.93-.11,4.09,1.03,1.14,2.52,1.01,4.07-.38Z"></path><path d="m149.72,37.91h2.82v.99h-3.81v-7.11h3.87v.94h-2.89v1.81h2.83v1.03h-2.82v2.34Z"></path><path d="m165.78,36.44c.03.82.43,1.44,1.07,1.61,1.05.29,1.68-.3,2.16-1.19.27.16.5.3.72.43-.48,1.28-1.54,1.94-2.78,1.74-1.17-.18-2.06-1.22-2.15-2.5-.07-.95.18-1.8.88-2.48.67-.65,1.49-.8,2.36-.55.96.28,1.5.99,1.74,1.93.08.3.08.62.12,1.01h-4.11Zm3.06-.9c-.36-.87-.9-1.24-1.64-1.19-.65.05-1.11.46-1.29,1.19h2.93Z"></path><path d="m191.97,36.45c.09.87.51,1.48,1.15,1.62,1.03.24,1.64-.33,2.09-1.21.27.16.5.3.72.43-.55,1.44-1.8,2.08-3.18,1.65-1.26-.39-2.02-1.97-1.68-3.46.32-1.37,1.49-2.23,2.77-2.05,1.42.21,2.31,1.4,2.19,3.02h-4.06Zm.14-.91h2.86c-.16-.73-.72-1.18-1.42-1.19-.71,0-1.23.41-1.44,1.19Z"></path><path d="m135.54,36.45h-4.06c-.02.77.37,1.35,1.01,1.59.8.29,1.35.02,2.24-1.14.23.14.46.27.69.41-.57,1.44-1.79,2.06-3.18,1.65-1.23-.36-2-1.88-1.7-3.33.29-1.43,1.4-2.35,2.65-2.21,1.49.17,2.4,1.32,2.36,3.04Zm-4.01-.92h2.96c-.28-.77-.76-1.15-1.43-1.17-.7-.02-1.15.32-1.53,1.17Z"></path><path d="m144.92,36.44h-3.94c-.1.69.28,1.32.9,1.58.79.33,1.33.08,2.3-1.1.15.08.3.15.45.24.08.05.15.12.22.18-.48,1.23-1.48,1.87-2.68,1.72-1.16-.14-2.04-1.05-2.22-2.3-.22-1.5.59-2.94,1.84-3.27,1.78-.47,3.38,1.01,3.13,2.95Zm-3.91-.92h2.9c-.2-.74-.69-1.14-1.42-1.16-.7-.02-1.19.35-1.48,1.16Z"></path><path d="m184.62,36.45h-4c.02.8.43,1.41,1.06,1.61.75.24,1.27-.03,2.2-1.17.22.13.45.27.67.4-.48,1.26-1.53,1.92-2.74,1.75-1.16-.17-2.06-1.16-2.17-2.41-.14-1.53.68-2.88,1.91-3.17,1.78-.41,3.31,1.04,3.07,2.98Zm-1-.91c-.22-.79-.79-1.22-1.54-1.18-.68.03-1.19.49-1.31,1.18h2.86Z"></path><path d="m239.4,36.9c.21.12.42.25.68.4-.35.91-.94,1.53-1.89,1.71-.94.18-1.8-.04-2.39-.82-.81-1.07-.91-2.25-.29-3.45.59-1.14,1.77-1.6,2.95-1.21,1.14.38,1.88,1.64,1.66,2.91h-3.95c-.08.7.29,1.31.91,1.57.77.33,1.3.07,2.31-1.11Zm-.23-1.35c-.34-.88-.99-1.31-1.73-1.19-.63.1-1.11.6-1.14,1.19h2.88Z"></path><path d="m118.6,34.13c.6-.53,1.14-.82,1.81-.71.86.14,1.46.64,1.53,1.56.1,1.29.02,2.6.02,3.93h-.84c0-.92,0-1.83,0-2.74,0-.28-.02-.55-.04-.83-.04-.44-.21-.81-.66-.96-.49-.17-.89.01-1.25.34-.5.46-.54,1.07-.54,1.7,0,.81,0,1.62,0,2.47h-.88v-7.29h.83v2.53Z"></path><path d="m164.06,59.77c-.52-.41-1.18.19-1.53-.61h1.45v-.78c-.23-.31-.92.27-.93-.53h.93c.01-.31.03-.6.04-.92h.53c-.02.29-.04.55-.07.87h1.05v-.93c.24.01.42.02.61.04-.05.31-.09.57-.14.89h1.21c0,.18.02.32.02.49h-1.17v.82h1.43v.47h-1.51c-.03.06-.06.12-.09.18.57.38,1.15.75,1.76,1.15-.06.1-.16.27-.3.5-.34-.2-.68-.4-1.05-.62v1.2h-2.12c-.12.74-.06.81.61.81.28,0,.56-.02.83,0,.53.05.89-.12,1.02-.7.18.09.34.17.49.25-.1.72-.4.96-1.08.92-.57-.03-1.15-.02-1.72-.02-.47,0-.75-.14-.69-.7.05-.53.01-1.07.01-1.7-.27.18-.49.32-.73.48-.15-.13-.3-.25-.41-.33.53-.42,1.03-.82,1.55-1.23Zm1.95.67c-.41-.37-.4-1.05-1.03-.85-.35.11-.62.45-.92.68l.11.16h1.85Zm-.23.51h-1.68c.02.23.03.42.04.58h1.64v-.58Zm-.26-2.63h-.99v.8h.99v-.8Z"></path><path d="m90.73,36.23c0-1.6,1.14-2.84,2.59-2.82,1.43.02,2.54,1.24,2.55,2.81,0,1.59-1.13,2.85-2.57,2.86-1.45,0-2.57-1.24-2.57-2.84Zm4.19.01c0-1.03-.77-1.91-1.65-1.89-.88.02-1.63.91-1.62,1.94.01,1.04.71,1.82,1.63,1.82.96,0,1.64-.78,1.64-1.86Z"></path><path d="m251.62,36.31c-.06-1.57,1.06-2.86,2.51-2.91,1.4-.05,2.58,1.17,2.63,2.73.05,1.58-1.05,2.88-2.49,2.93-1.45.05-2.6-1.13-2.65-2.76Zm4.2-.05c0-1.02-.76-1.91-1.64-1.91-.87,0-1.65.91-1.65,1.92,0,1.03.72,1.84,1.62,1.85.95.01,1.67-.79,1.67-1.85Z"></path><path d="m221.25,39.07c-1.44,0-2.6-1.27-2.6-2.84,0-1.56,1.19-2.84,2.61-2.83,1.41.02,2.54,1.26,2.57,2.81.03,1.54-1.16,2.85-2.58,2.86Zm-1.66-2.81c0,1.05.74,1.86,1.68,1.84.91-.02,1.63-.84,1.62-1.85,0-1-.81-1.92-1.67-1.91-.88,0-1.65.91-1.64,1.92Z"></path><path d="m262,38.91h-.81c0-.73,0-1.48,0-2.22,0-.49.01-1-.08-1.48-.16-.86-.94-1.15-1.66-.67-.5.33-.73.82-.74,1.41-.01.97,0,1.93,0,2.94h-.91v-5.33c.36.07.89-.33.91.31.54-.16,1.09-.43,1.65-.44.86-.02,1.57.6,1.64,1.5.1,1.31.03,2.63.03,3.98Z"></path><path d="m235.16,61.05h-1.55c-.3.24-.51.41-.72.58-.05-.04-.09-.08-.14-.13v-3.28h2.37v-1.44c.25.01.46.02.67.04v1.4h2.39v3.35c-.39-.21-.69-.47-1.02-.53-.43-.09-.89-.02-1.38-.02v2.38c-.17.01-.36.03-.62.05v-2.4Zm-1.78-.59h1.72v-1.72h-1.72v1.72Zm2.41-1.72v1.72h1.72v-1.72h-1.72Z"></path><path d="m157.79,38.91h-.85c0-.87,0-1.71,0-2.56,0-.37,0-.76-.07-1.12-.19-.93-1.11-1.25-1.78-.58-.31.31-.55.8-.59,1.23-.09.98-.03,1.97-.03,3h-.92v-5.32c.37.04.85-.29.93.38.36-.16.72-.4,1.11-.48,1.14-.25,2.11.44,2.19,1.66.09,1.24.02,2.49.02,3.79Z"></path><path d="m241.26,33.54c.4.06.93-.26.92.35.51-.17,1.03-.45,1.57-.48.86-.05,1.6.58,1.7,1.51.14,1.31.14,2.63.2,3.98h-.98c0-.83,0-1.63,0-2.44,0-.41-.01-.83-.09-1.24-.15-.84-.86-1.15-1.6-.72-.54.32-.79.82-.8,1.43-.01.97,0,1.93,0,2.95h-.91v-5.34Z"></path><path d="m169.17,61.5v-3.28h2.39v-1.44c.27.03.49.05.67.06v1.37h2.38v3.23c-.17,0-.37.02-.46.03-.57-.79-1.3-.27-1.93-.48v2.41c-.21.02-.37.03-.6.05v-2.3c-1.02-.31-1.76-.17-1.88.36h-.57Zm.65-2.78v1.74h1.74v-1.74h-1.74Zm4.14.03h-1.73v1.7h1.73v-1.7Z"></path><path d="m107.76,58.21h2.37v3.22c-.18.02-.35.03-.5.04-.46-.93-1.24-.2-1.88-.54v2.46c-.21.02-.37.03-.62.05v-2.35c-1.34-.23-1.75-.15-1.88.4h-.56v-3.26h2.38v-1.45c.24.01.46.03.68.04v1.38Zm-2.42,2.25h1.74v-1.71c-2.16-.1-1.81-.37-1.74,1.71Zm4.15-1.72h-1.73v1.7h1.73v-1.7Z"></path><path d="m190.04,38.91h-.91c0-.99,0-1.96,0-2.92,0-.2,0-.39-.03-.59-.06-.5-.23-.94-.79-1.05-.55-.11-1.04.1-1.27.57-.23.48-.34,1.04-.39,1.57-.06.78-.02,1.58-.02,2.41h-.89v-5.32c.35.06.85-.33.93.37.37-.16.72-.39,1.11-.47,1.13-.25,2.03.45,2.2,1.66.03.21.04.43.04.65,0,1.03,0,2.05,0,3.13Z"></path><path d="m125.24,33.57c.38,0,.84-.26.87.32.55-.17,1.09-.46,1.65-.47.95-.02,1.63.68,1.71,1.78.08,1.22.02,2.44.02,3.7h-.9c0-1.07.02-2.11,0-3.15-.02-.97-.34-1.41-.97-1.43-.68-.03-1.36.59-1.43,1.4-.08.94-.07,1.9-.1,2.84,0,.1-.01.19-.03.33h-.81v-5.32Z"></path><path d="m99.38,57.91h1.48v-1.1h.56v1.09h1.83c-.13.46-.25.89-.37,1.35h-.62c.09-.29.17-.55.27-.85h-1.11v1.3h1.4c-.35.86-.66,1.63-1.01,2.5.45.16.93.33,1.45.51-.09.17-.18.34-.31.57-.42-.19-.84-.35-1.22-.58-.28-.17-.48-.15-.75.02-.38.24-.8.41-1.22.62-.15-.16-.29-.3-.42-.45.56-.22,1.1-.43,1.65-.65-.31-.7-.9-1.23-.78-2.06-.34-.13-.37.14-.39.44-.08,1.07-.44,2-1.37,2.66-.19-.11-.37-.21-.62-.35,2.16-1.19,1.35-3.24,1.55-5.02Zm1.9,3.87c.06,0,.11,0,.17,0,.21-.49.43-.98.67-1.55h-1.62c.29.57.53,1.07.78,1.56Zm-1.39-2.04c.37-.02.68-.04.95-.05v-1.31h-.95v1.37Z"></path><path d="m225.77,38.91h-.92v-5.33h.81c.03.13.07.28.08.31.58-.17,1.12-.46,1.67-.47.86-.02,1.55.58,1.63,1.51.11,1.31.03,2.63.03,3.98h-.83c0-1.06,0-2.1,0-3.14,0-.18-.02-.35-.05-.53-.18-.9-1.06-1.25-1.73-.63-.33.31-.6.82-.64,1.26-.09,1-.03,2.01-.03,3.04Z"></path><path d="m196.94,33.57h.99c0,.66,0,1.29,0,1.91,0,.49,0,.99.04,1.48.05.66.51,1.1,1.15,1.13.64.03,1.16-.34,1.25-1.01.08-.6.06-1.22.07-1.83,0-.55,0-1.1,0-1.68h.99c-.06,1.32-.04,2.62-.21,3.9-.14,1.05-1.04,1.63-2.11,1.59-1.05-.04-1.85-.65-1.97-1.7-.14-1.25-.13-2.51-.19-3.8Z"></path><path d="m230.45,63.13c-.19-.09-.37-.26-.56-.27-1.22-.02-2.45-.02-3.68-.01-.22,0-.49-.09-.51.31,0,.08-.29.14-.52.23v-6.31h5.73v6.2h-.51c.02-.05.03-.1.05-.15Zm-.13-.71v-4.78h-4.56v4.78h4.56Z"></path><path d="m100.1,51.18c-.61,1.3-1.46,2.23-2.65,2.85-.24-.22-.48-.45-.76-.71,2.45-1.08,3.09-3.08,2.78-5.56h1.15c-.37,2.46.39,4.32,2.73,5.39-.13.15-.26.3-.38.45-.13.15-.26.29-.41.45-1.12-.65-1.91-1.58-2.46-2.86Z"></path><path d="m219.17,59.9h-1.66c0-.13-.02-.28-.02-.42.8-.22,1.72.39,2.37-.37,0-.07-.01-.14-.02-.21-.44,0-.88-.02-1.31,0-.37.02-.45-.11-.35-.42.66-.05,1.3-.09,1.94-.17.06,0,.09-.23.15-.41h-2.42c0-.14-.02-.3-.03-.48h2.54c.04-.23.08-.44.13-.7.21.02.41.04.66.06-.06.23-.1.41-.16.64h2.48v.44c-.75,0-1.48,0-2.21,0-.42,0-.42.01-.56.54h2.36c.15.34.12.5-.27.49-.63-.02-1.27-.05-1.9-.01-.23.01-.44.19-.67.29.02.07.05.15.07.22h3.42v.51h-1.69c-.02.05-.04.1-.06.16.64.35,1.28.69,1.96,1.06-.08.11-.19.26-.4.55-.61-.49-1.23-.93-1.78-1.44-.49-.46-1.57-.49-2.06-.03-.57.54-1.17,1.05-1.79,1.6-.21-.16-.37-.28-.51-.39.64-.46,1.26-.91,1.88-1.37-.03-.05-.05-.11-.08-.16Z"></path><path class="logo-wcec-1" d="m189.17,10.18c.36.17.62.23.8.38,1.08.9,2.14,1.82,3.2,2.73.15.13.33.25.41.42.08.16.11.39.04.55-.04.1-.3.16-.45.14-1.62-.24-3.03-1-4.34-1.93-.51-.36-.62-1.04-.43-1.63.09-.27.5-.44.77-.66Z"></path><path class="logo-wcec-1" d="m180.75,14.27c.27-.37.4-.61.58-.78.87-.83,1.77-1.63,2.63-2.47.35-.34.71-.79,1.2-.53.37.2.69.63.86,1.04.21.5-.12.9-.53,1.21-1.21.9-2.63,1.34-4.05,1.79-.15.05-.36-.12-.69-.25Z"></path><path d="m139.24,34.25c-.18.21-.36.42-.55.64-.22-.16-.4-.4-.63-.44-.24-.05-.61,0-.76.16-.11.12-.03.56.12.72.24.27.61.42.92.63.58.39.94.91.84,1.64-.1.77-.55,1.28-1.22,1.43-.68.16-1.4-.18-1.87-.88.17-.21.33-.42.52-.66.19.17.35.34.54.47.36.24.72.24,1-.13.29-.38.16-.71-.19-.97-.24-.18-.5-.32-.75-.48-.65-.4-.98-.95-.87-1.74.08-.56.37-.97.9-1.15.72-.24,1.31.07,1.82.56.06.05.1.12.16.19Z"></path><path d="m208.13,34.22c-.23.26-.41.46-.58.66-.23-.17-.42-.39-.65-.44-.23-.05-.59,0-.71.14-.11.14-.06.56.07.7.28.3.66.49,1,.73.72.51.96,1.18.7,1.96-.21.62-.64,1-1.28,1.08-.63.08-1.21-.15-1.55-.67-.12-.17.12-.58.22-.98.33.27.51.45.71.58.37.22.74.18.99-.19.24-.36.12-.69-.21-.93-.25-.19-.59-.29-.79-.52-.33-.37-.68-.77-.83-1.22-.19-.59.09-1.13.62-1.49.49-.33,1.02-.28,1.52,0,.27.15.49.38.77.59Z"></path><path d="m234.59,33.62c-.58,1.41-1.16,2.8-1.74,4.2-.11.27-.22.55-.34.82-.05.11-.17.2-.25.29-.1-.1-.25-.18-.31-.3-.33-.74-.63-1.49-.94-2.23-.39-.92-.77-1.85-1.16-2.77.89-.2.91-.19,1.23.59.36.87.73,1.74,1.15,2.74.41-.98.78-1.86,1.14-2.73.32-.77.32-.77,1.23-.61Z"></path><path d="m117.58,47.91v3.39h-2.78v-3.39h2.78Zm-1.93.78v1.86h.99v-1.86h-.99Z"></path><path d="m91.24,63.03c-.08-.18-.17-.38-.25-.57.31-.09.69-.08.86-.27.17-.18.14-.56.16-.85.06-.83.09-1.65.14-2.52h-.99c-.08,1.59-.2,3.17-1.39,4.43-.1-.07-.17-.12-.25-.18-.08-.06-.15-.13-.25-.23,1.2-1.08,1.35-2.51,1.38-4.03h-1.06v-.52h1.03v-1.43c.25.02.45.03.66.04-.04.47-.08.9-.13,1.38h1.62c-.04.67-.08,1.35-.12,2.03-.03.49-.08.99-.11,1.48-.06,1.09-.13,1.16-1.3,1.24Z"></path><path d="m131.12,63.39c-.06-.17-.12-.35-.2-.59.73.19.78-.21.76-.75-.03-.86,0-1.73,0-2.63h-4.01v3.86c-.19.02-.36.03-.55.05v-4.37h1.39c-.1-.22-.17-.39-.3-.69.26.03.51,0,.65.11.08.06-.01.35-.03.59.17,0,.44-.02.71,0,.36.03.62-.08.75-.43.14-.39.37-.4.7-.19-.14.17-.28.34-.47.57h1.72v3.38c0,.95-.1,1.06-1.11,1.08Z"></path><path d="m159.56,33.49v-1.82h.87v1.82c.31.03.58.06.9.09v.81c-.27.02-.54.04-.86.06v4.44h-.89v-4.42c-.29-.03-.54-.06-.81-.09v-.8c.25-.03.49-.06.8-.09Z"></path><path d="m248.17,38.92h-.89v-4.45c-.3-.03-.53-.05-.8-.08v-.81c.24-.02.47-.04.77-.07v-1.84h.89v1.84c.34.03.61.05.92.08v.82c-.28.02-.55.04-.89.06v4.47Z"></path><path d="m193.02,58.94c-.14-.26-.22-.41-.4-.76.36.1.6.11.74.23.07.06-.05.34-.09.55.57-.09,1.41.36,1.63-.76.21.04.37.06.61.11-.18.22-.33.39-.52.62h1.73c0,1.16,0,2.26,0,3.37,0,.96-.02.99-1.06,1.12-.08-.18-.17-.37-.28-.62.7.16.85-.15.82-.76-.05-.86-.01-1.73-.01-2.63h-4.05v3.85c-.16.02-.33.03-.53.06v-4.38h1.42Z"></path><path d="m259.19,63.48c-.11-.27-.18-.45-.27-.69.72.18.83-.17.8-.76-.04-.86-.01-1.73-.01-2.62h-4.03v3.86c-.18.02-.35.03-.55.05v-4.39h1.41c-.12-.22-.19-.37-.35-.67.29.04.55,0,.67.11.09.08-.01.36-.04.59.24,0,.6.05.94-.02.19-.04.43-.22.51-.4.17-.38.38-.4.72-.19-.15.17-.29.34-.48.57h1.73c0,1.33.03,2.62-.01,3.92-.02.63-.64.43-1.04.65Z"></path><path d="m85.51,63.29c-.2-.09-.37-.16-.57-.25,1.41-1.68.86-3.69,1-5.58.73-.13,1.46-.25,2.26-.39.08.11.2.28.38.51-.74.09-1.41.18-2.12.27v1.3h2.11v.51c-.25.01-.49.03-.79.04v3.58h-.52v-3.57c-.26-.01-.5-.03-.81-.04-.13,1.27-.2,2.52-.94,3.62Z"></path><path d="m100.47,38.92h-.85v-7.32h.85v7.32Z"></path><path class="logo-wcec-1" d="m146.57,61.11c-.54-.56-1.13-1.17-1.68-1.74.55-.55,1.14-1.14,1.7-1.7.54.55,1.14,1.16,1.75,1.77-.54.51-1.15,1.1-1.76,1.68Z"></path><path d="m262.65,63.22c-.06-.16-.12-.3-.15-.39.63-.55,1.22-1.08,1.82-1.6-.02-.05-.05-.09-.07-.14h-2.06v-.53h5.6c0,.14.02.29.03.49h-2.79c-.36.78-1.13,1.01-1.6,1.69.98-.06,1.88-.11,2.91-.18-.29-.27-.5-.46-.76-.69.15-.1.29-.2.49-.33.52.49,1.05.99,1.62,1.53-.23.16-.4.28-.61.43-.25-.6-.72-.58-1.23-.53-1.04.1-2.08.17-3.19.26Z"></path><path d="m114.33,51.74c-.76.13-1.49.25-2.27.38-.09-.22-.19-.47-.25-.62.41-.44.77-.82,1.13-1.21l-.1-.16c-.32.03-.64.07-.97.1-.29-.41-.19-.68.14-1.06.39-.47.6-1.09.91-1.7.29.09.59.19.93.3-.39.57-.75,1.08-1.11,1.61.7.3.86-.3,1.2-.67.23.15.45.3.72.48-.48.65-.95,1.27-1.48,1.99.45-.05.79-.08,1.16-.12v.66Z"></path><path d="m204.16,63.07c-.25.17-.41.27-.62.41-.25-.63-.76-.57-1.28-.52-1.02.09-2.05.17-3.12.26-.06-.13-.13-.28-.18-.39.63-.55,1.22-1.08,1.82-1.6l-.07-.14h-2.06v-.53h5.6v.49h-2.84c-.09.21-.12.4-.24.5-.4.37-.83.71-1.21,1.19.89-.05,1.78-.11,2.82-.17-.31-.27-.52-.47-.77-.69.18-.11.32-.2.51-.32.52.49,1.04.98,1.62,1.53Z"></path><path d="m135.42,62.74c.97-.07,1.86-.13,2.87-.19-.3-.28-.51-.47-.75-.69.18-.11.32-.2.51-.32.53.5,1.04.98,1.61,1.51-.22.15-.38.27-.62.44-.25-.71-.81-.56-1.33-.52-1,.07-2.01.16-3.06.25-.06-.13-.13-.28-.18-.39.63-.56,1.23-1.08,1.83-1.61-.02-.05-.05-.09-.07-.14h-2.06v-.53h5.57c.02.13.03.29.06.48h-2.89c-.2.83-1.07.98-1.49,1.7Z"></path><path class="logo-wcec-1" d="m211.11,57.65c.55.55,1.12,1.13,1.68,1.7-.57.56-1.16,1.15-1.75,1.74-.54-.57-1.11-1.16-1.67-1.74.54-.53,1.13-1.1,1.74-1.69Z"></path><path d="m93.3,58h2.26v4.71c-.16,0-.31.02-.49.02-.02-.19-.05-.35-.07-.56h-1.12c-.01.23-.03.42-.04.64h-.53v-4.82Zm1.69,3.65v-3.12h-1.11v3.12h1.11Z"></path><path d="m202.4,33.53c.33.03.64.06.95.09,0,.07,0,.13-.01.2.54-.38,1.08-.61,1.7-.12-.23.32-.18.87-.87.7-.16-.04-.54.34-.63.6-.16.48-.21,1-.23,1.51-.04.79,0,1.57,0,2.4h-.9v-5.37Z"></path><path d="m162.89,38.92h-.9v-5.4c.34.05.66.09,1.15.16.35-.29.89-.46,1.51.03-.24.37-.3.83-.96.71-.17-.03-.56.48-.65.8-.14.54-.13,1.13-.15,1.7-.02.65,0,1.3,0,2Z"></path><path d="m177.76,38.91h-.92v-5.4c.34.05.66.1,1.12.17.34-.3.87-.45,1.52,0-.13.23-.25.47-.38.69-.98-.08-1.26.41-1.33,1.32-.07,1.04-.02,2.09-.02,3.21Z"></path><path d="m248.12,58.32c.63,0,1.22-.04,1.81.01.56.05.89-.15,1.1-.65.1-.23.23-.45.38-.72.24.1.47.19.73.3-.3.33-.58.62-.95,1.03h1.28v2.18h-4.34v-2.15Zm.59,1.66h3.17v-1.12h-3.17v1.12Z"></path><path d="m123.15,58.31h1.3v2.17h-4.34v-2.16c.59,0,1.2-.04,1.8.01.56.05.89-.15,1.1-.65.1-.23.24-.45.38-.72.24.1.47.19.72.3-.3.32-.57.62-.96,1.04Zm.7.52c-.82,0-1.6,0-2.38,0q-.87,0-.83.86c0,.09.03.19.04.29h3.17v-1.15Z"></path><path d="m187.84,56.96c.26.11.47.2.72.3-.3.33-.57.62-.93,1.02h1.27v2.2h-4.36v-2.16c.58,0,1.19-.05,1.79.01.59.06.93-.17,1.14-.68.09-.22.22-.42.36-.69Zm-2.71,3.03h3.17v-1.11h-3.17v1.11Z"></path><path d="m99.33,33.7c-.15.26-.27.48-.39.7-.82-.04-1.2.23-1.28,1.08-.08.9-.06,1.82-.08,2.72,0,.22,0,.43,0,.7h-.88v-5.35c.31.04.65.08,1.14.13.34-.3.87-.43,1.5.03Z"></path><path d="m181.54,57.28c.21.15.4.29.63.46-.66.35-1.2.67-1.77.92-.52.23-.39.66-.32,1.01.03.15.41.3.65.32.55.07,1.06-.02,1.1-.79.23.12.41.22.58.31-.16.87-.45,1.05-1.63,1.04-1.1-.01-1.17-.09-1.37-1.39-.28.11-.55.21-.88.34-.11-.15-.24-.31-.45-.58,1.79.12,1.32-1.14,1.36-2.1.25.03.44.05.62.07v1.42c.54-.38,1.02-.72,1.48-1.04Z"></path><path d="m245.64,57.77c-.62.32-1.14.64-1.7.88-.52.22-.41.65-.33,1,.03.16.41.31.64.34.54.06,1.07.01,1.1-.79.24.12.42.22.59.31-.14.88-.48,1.08-1.67,1.05-1.08-.03-1.15-.1-1.31-1.38-.3.11-.58.22-.89.33-.12-.16-.24-.31-.31-.41.42-.26.99-.41,1.18-.77.2-.38.05-.96.05-1.49.23.02.42.04.6.05v1.39c.29-.17.54-.31.77-.48.24-.17.46-.37.77-.61.15.18.32.36.51.58Z"></path><path d="m113.66,59.02q1.29-.37,1.34-2.17c.19.01.37.03.6.05-.03.44-.05.87-.08,1.47.61-.43,1.09-.77,1.62-1.14.15.15.31.32.51.53-.61.32-1.17.64-1.75.91-.48.22-.37.64-.31.96.03.16.39.32.62.35.54.07,1.07.02,1.12-.77.23.11.41.2.59.28-.18.9-.53,1.15-1.73,1.04-1-.1-1.2.12-1.24-1.37-.3.11-.59.22-.91.34-.11-.14-.24-.29-.4-.49Z"></path><path d="m182.51,61.29v.59h-2.88v1.47c-.18,0-.39.02-.63.03v-1.48h-2.84c-.02-.21-.03-.37-.04-.58h2.84c.02-.27.03-.49.05-.77.21.02.41.03.64.05-.01.24-.02.44-.03.7h2.9Z"></path><path d="m239.68,61.89v-.58h2.82c.02-.27.03-.5.05-.77.22.02.42.04.64.07-.02.23-.03.42-.05.66h2.89c.02.21.04.37.07.59h-2.91v1.48h-.66v-1.44h-2.84Z"></path><path d="m115.15,63.35h-.64v-1.46h-2.82v-.58h2.81c.02-.27.03-.49.05-.76.2.02.39.03.61.05v.69h2.9v.59h-2.89v1.48Z"></path><path d="m249.83,33.58h.85v5.32h-.85v-5.32Z"></path><path d="m84.55,58.22c.09.03.18.06.27.1.07.03.13.07.23.13-.16.24-.31.46-.5.75h.94q.02.37-1.32.48c-.01.21-.02.44-.04.71h1.22q.05.3-1.21.48c0,.42,0,.85,0,1.28,0,.91-.02.93-1.03,1.06-.05-.19-.11-.38-.19-.64.61.1.78-.17.71-.7-.04-.33,0-.66,0-1.03h-1.5c0-.17.02-.29.02-.44h1.45v-.72h-1.54c-.04-.05-.07-.11-.11-.16.13-.1.25-.25.39-.28.19-.04.39.02.59.03q1.17.04,1.64-1.03Z"></path><path d="m136.73,56.7c.53-.05.57.35.77.64.53.74,1.25,1.26,2.1,1.58.2.08.41.14.67.23-.14.21-.27.41-.41.62-1.2-.5-2.17-1.24-2.86-2.26-.9.82-1.77,1.61-2.66,2.42-.27-.22-.45-.38-.69-.58,1.38-.53,2.36-1.47,3.08-2.65Z"></path><path d="m262.36,59.92c-.27-.22-.44-.37-.68-.57,1.35-.55,2.35-1.45,3.06-2.64.57-.1.58.36.8.66.61.81,1.42,1.36,2.39,1.66.11.03.22.07.37.11-.15.22-.28.41-.42.62-1.19-.48-2.16-1.23-2.86-2.25-.9.81-1.78,1.61-2.67,2.41Z"></path><path d="m201.22,56.7c.56-.09.56.37.77.64.61.81,1.42,1.37,2.4,1.67.11.03.22.07.38.11-.15.22-.27.41-.39.59-1.06-.33-1.9-.97-2.9-2.2-.88.8-1.77,1.6-2.65,2.4-.27-.23-.45-.38-.68-.57,1.37-.54,2.36-1.46,3.07-2.65Z"></path><path d="m123.19,33.57h.83v5.34h-.83v-5.34Z"></path><path d="m98.11,58.77c.31.02.54.03.76.04q.07.43-.71.5v1.92c.2-.05.4-.09.62-.14.14.35.04.52-.33.62-.53.14-1.04.35-1.63.55-.05-.2-.1-.39-.15-.59q.98-.31.98-1.37v-1.03h-.9v-.46h.87v-1.78c.24.01.42.02.56.03-.03.6-.05,1.14-.08,1.72Z"></path><path d="m222.44,61.17c-.25.21-.46.38-.75.63.6.25,1.13.48,1.69.71-.13.16-.24.3-.36.44-.66-.32-1.31-.64-2.06-1-.05.69.18,1.56-1,1.4-.05-.1-.14-.26-.26-.5.65.09.74-.25.72-.76-.03-.63,0-1.26,0-1.94.18.01.34.03.52.04,0,.21-.02.41,0,.59.04.27.13.53.2.79.23-.16.45-.31.68-.47.05-.03.08-.09.16-.2.14.08.29.17.46.26Z"></path><path d="m190.99,57.98v-.48h2.91c-.06-.22-.11-.4-.17-.62.19-.05.37-.09.59-.15.09.26.17.5.26.76.79,0,1.58.02,2.37,0,.37-.01.45.14.36.5h-6.31Z"></path><path d="m132.81,57.51v.48h-6.3c-.02-.13-.04-.29-.06-.49h2.94c-.05-.22-.08-.4-.13-.63.18-.05.36-.09.63-.17-.04.94.59.81,1.16.8.57-.01,1.14,0,1.76,0Z"></path><path d="m260.84,58h-6.31c0-.13-.02-.3-.03-.5h2.93c-.06-.22-.11-.4-.16-.62.19-.05.37-.09.59-.14.09.27.17.5.26.76.8,0,1.59.02,2.37,0,.39-.01.43.16.35.52Z"></path><path d="m177.84,60.56h-.52v-1.92c-.32.34-.55.59-.81.87-.17-.13-.33-.26-.45-.35.63-.76,1.25-1.51,1.92-2.31.13.07.33.17.57.3-1.16.97-.4,2.25-.71,3.42Z"></path><path d="m241.37,60.57h-.52v-1.93c-.33.35-.56.59-.82.87-.16-.13-.31-.26-.44-.36.63-.76,1.25-1.51,1.91-2.31.15.08.34.19.57.31-1.17.98-.39,2.27-.7,3.42Z"></path><path d="m114.05,57.14q-.59.66-.63,3.42c-.18,0-.36.02-.57.03,0-.34,0-.63,0-.92s0-.59,0-1.05c-.33.35-.57.61-.85.9-.16-.14-.3-.26-.43-.37.63-.77,1.25-1.52,1.9-2.31.15.08.36.18.57.29Z"></path><path d="m185.27,61.19h.58c.15.52-.44,1.25.32,1.5.95.32,1.52.03,1.88-.74.18.09.36.19.55.29-.2.65-.57,1-1.26.94-.43-.04-.87,0-1.3-.01-.52-.01-.81-.23-.77-.81.03-.39,0-.78,0-1.18Z"></path><path d="m120.82,61.16c.21.01.41.02.59.04.13.52-.42,1.2.26,1.49.79.35,1.58,0,1.93-.73.18.1.36.19.55.29-.2.66-.57.99-1.27.94-.45-.04-.91,0-1.36-.02-.46-.02-.73-.24-.7-.75.02-.39,0-.79,0-1.26Z"></path><path d="m130.67,60.69v1.69h-2.16v-1.67h2.18l-.02-.02Zm-.56,1.28v-.76h-1.07v.76h1.07Z"></path><path d="m248.83,61.16c.23.01.44.03.62.04.06.54-.43,1.22.26,1.49.91.36,1.58.02,1.89-.75.18.1.37.21.57.32-.2.61-.53.97-1.21.93-.47-.03-.95,0-1.42-.01-.46-.02-.73-.24-.71-.74.02-.41,0-.82,0-1.27Z"></path><path d="m195.15,62.39h-2.14v-1.59h2.14v1.59Zm-.52-1.18h-1.09v.77h1.09v-.77Z"></path><path d="m256.54,62.39v-1.6h2.14v1.6h-2.14Zm.53-1.2v.78h1.07v-.78h-1.07Z"></path><path d="m115.26,51.68c.21.07.49.17.89.31-.49.75-.95,1.46-1.43,2.19-.33-.19-.58-.32-.76-.42.44-.7.86-1.37,1.3-2.07Z"></path><path d="m116.41,52.01c.24-.12.49-.25.82-.41.39.64.77,1.25,1.17,1.9-.33.19-.58.33-.83.48-.39-.66-.76-1.29-1.16-1.97Z"></path><path d="m114.23,52.37c.16.55-.1.72-.54.8-.6.11-1.2.25-1.87.4-.06-.26-.12-.52-.19-.81.9-.13,1.75-.26,2.61-.39Z"></path><path d="m82.29,57.99v-.46h1.46c-.04-.22-.08-.4-.12-.62.17-.03.34-.07.53-.11.08.24.15.46.24.71h1.03c.02.14.03.28.06.47h-3.19Z"></path><path d="m135.38,59.83v-.5h3.17c.01.13.03.3.05.5h-3.23Z"></path><path d="m263.43,59.33h3.15c.01.14.03.3.05.5h-3.2v-.5Z"></path><path d="m199.86,59.33h3.19c.01.15.02.31.04.5h-3.2c0-.16-.02-.31-.03-.5Z"></path><path d="m122.85,31.99c.26-.18.49-.47.77-.52.39-.06.61.27.62.64,0,.4-.2.7-.64.71-.43,0-.63-.27-.75-.83Z"></path><path d="m161.68,63.12c-.22-.14-.38-.23-.51-.32.23-.79.44-1.55.67-2.35.16.09.31.18.5.29-.22.78-.43,1.55-.66,2.38Z"></path><path d="m250.89,32.1c0,.43-.2.71-.63.72-.39,0-.62-.23-.63-.63-.02-.41.16-.71.59-.73.43-.02.64.25.67.65Z"></path><path d="m217.94,62.43c.73-.28,1.44-.56,2.16-.83l.13.1c-.15.18-.27.41-.45.52-.35.21-.76.33-1.12.53-.37.2-.58.09-.71-.31Z"></path><path d="m251.97,61.2c.18-.09.32-.16.52-.26.32.41.64.82,1,1.27-.22.13-.4.24-.57.35-.32-.46-.62-.89-.95-1.36Z"></path><path d="m188.93,60.93c.35.45.66.85.99,1.29-.2.13-.38.24-.56.35-.32-.45-.62-.88-.95-1.35.14-.08.3-.17.52-.29Z"></path><path d="m125.47,62.22c-.21.13-.37.23-.56.35-.32-.45-.63-.89-.96-1.36.15-.08.32-.16.53-.27.33.43.65.84.99,1.28Z"></path><path d="m119.73,62.92c-.25-.09-.41-.15-.56-.21.16-.55.3-1.06.46-1.62.16.04.31.07.54.12-.14.56-.28,1.09-.43,1.7Z"></path><path d="m184.1,62.89c-.18-.06-.32-.11-.49-.17.15-.55.3-1.07.45-1.59.63.08.64.43.04,1.76Z"></path><path d="m247.74,62.91c-.25-.09-.4-.14-.56-.2.16-.55.31-1.07.47-1.64.16.04.32.09.53.14-.15.57-.28,1.1-.43,1.69Z"></path><path d="m81.89,62.46c.33-.48.62-.9.92-1.34.15.08.29.14.47.23-.3.45-.58.87-.88,1.33-.16-.07-.31-.13-.51-.22Z"></path><path d="m162.86,57.87c-.16.19-.28.33-.41.49-.36-.26-.69-.5-1.06-.77.12-.15.23-.29.38-.47.36.25.71.49,1.09.75Z"></path><path d="m161.11,59.31c.1-.14.19-.26.32-.44.34.2.67.39,1.05.6-.07.21-.14.4-.22.63-.4-.28-.76-.53-1.14-.8Z"></path><path d="m121.26,58.18c-.27-.32-.51-.61-.77-.92.17-.09.34-.18.54-.29.27.3.53.58.83.91-.23.11-.39.2-.6.3Z"></path><path d="m184.96,57.29c.58-.38.71-.32,1.29.63-.17.08-.35.17-.54.26-.26-.3-.5-.59-.75-.89Z"></path><path d="m249.85,57.92c-.21.09-.37.17-.57.25-.24-.29-.48-.59-.73-.88.56-.4.64-.36,1.3.63Z"></path><path d="m130.69,60.72c-.22-.24-.43-.48-.65-.72q.29-.33,1.36.55c-.14.57-.46.23-.73.15,0,0,.02.02.02.02Z"></path><path d="m194.4,59.93c.81-.38,1,.5,1.62.55-.19.2-.3.32-.43.46-.38-.32-.73-.62-1.19-1.01Z"></path><path d="m259.58,60.49c-.24.23-.35.33-.47.45-.37-.31-.72-.62-1.17-.99.79-.38,1,.5,1.64.55Z"></path><path d="m128.12,60.91c-.12-.13-.21-.22-.31-.33.35-.31.66-.6,1.01-.92.13.08.27.16.43.26-.38.34-.74.65-1.13.99Z"></path><path d="m192.18,60.51c.63-.1.73-1.03,1.59-.63-.43.37-.79.69-1.17,1.02-.11-.1-.21-.19-.42-.39Z"></path><path d="m256.83,59.65c.13.08.26.15.44.26-.4.35-.76.66-1.14.99-.11-.1-.21-.19-.32-.31.35-.32.67-.63,1.02-.94Z"></path><path d="m186.92,61.98c-.19-.35-.35-.66-.56-1.04.82-.39.69.52,1.12.76-.25.12-.41.21-.56.29Z"></path><path d="m121.91,60.94c.87-.37.68.53,1.11.76-.22.12-.37.2-.54.28-.19-.35-.36-.67-.57-1.05Z"></path><path d="m250.93,61.76c-.14.07-.29.15-.44.23-.2-.36-.37-.68-.55-1,.53-.28.54-.28.99.77Z"></path><path d="m84.95,62.37c-.22-.33-.41-.61-.61-.91.13-.08.26-.15.44-.26.06.41.89.61.17,1.17Z"></path><path d="m83.55,58.89c-.19.06-.33.11-.49.16-.1-.22-.19-.41-.28-.59q.48-.3.78.44Z"></path><path d="m93.9,52.64c.02-.07.04-.14.05-.21h1.87v-.63c-.78,0-1.53.01-2.27,0-.14,0-.27-.14-.4-.21.14-.07.28-.18.42-.19.63-.02,1.26,0,1.94,0-.02-.23-.03-.39-.04-.58-.41,0-.76.01-1.12,0-.3-.01-.61-.06-.91-.09,0-.08.01-.16.02-.25h1.71c.17-.47,0-.57-.36-.56-.44.02-.89,0-1.33,0,0-.09,0-.18,0-.26h1.74v-.57c-.6-.03-1.18-.05-1.76-.08,0-.08,0-.17,0-.25h2.05c-.03-.29-.05-.46-.07-.68h-1.9c-.05-.27-.09-.48-.14-.73-.32.04-.6.08-.9.12.05.24.09.41.13.61h-1.3c.06-.11.09-.18.12-.24.04-.08.08-.15.12-.23-.03-.06-.05-.13-.08-.19-.27.06-.67.02-.8.19-.5.63-.92,1.33-1.38,2.02.13.12.28.26.51.47.15-.22.28-.41.41-.61.05.02.1.04.15.06v2.03c.53-.07.96-.16,1.4-.18.17,0,.34.14.51.21-.16.06-.32.18-.49.18-.69.02-1.39,0-2.08.01-.07,0-.15.04-.25.07,0,.19.02.35.03.59h2c.01.05.02.11.04.16-.68.28-1.35.57-1.97.83.29.81.79.56,1.31.27.45-.25.91-.49,1.44-.78v1.14h.83v-1.16c.76.41,1.48.8,2.22,1.21.2-.33.35-.57.47-.77-.67-.25-1.31-.49-1.94-.72Zm-1.24-3.54c-.41.4-1.22.37-1.41,0h1.41Zm0,.6c-.41.4-1.22.37-1.41,0h1.41Zm-1.47.85h1.52c-.45.37-1.18.36-1.52,0Z"></path><path d="m229.78,58.28v.44h-1.46v.85h1.33c0,.14.01.28.02.48h-1.35v1.2c.4,0,.81.01,1.21,0,.35-.02.55.06.38.49h-3.7c-.06-.49-.06-.49.53-.47.31,0,.63,0,1,0,.01-.2.03-.39.03-.58,0-.19,0-.39,0-.61h-1.21q-.05-.35,1.18-.52c.01-.12.03-.25.03-.39,0-.12-.01-.24-.02-.4h-1.35c0-.17-.02-.33-.03-.49h3.42Z"></path><path d="m229.57,60.8c-.2.11-.33.18-.51.27-.14-.19-.27-.37-.42-.56.5-.52.65-.02.92.29Z"></path></g></g></g></svg>